<svg width="272" height="594" viewBox="0 0 272 594" fill="none" xmlns="http://www.w3.org/2000/svg">
<path d="M35.1159 549.691C35.1159 567.523 100.368 591.826 140.694 591.828C181.021 591.83 239.57 565.439 239.57 549.691C239.57 533.943 250.748 523.168 250.748 332.413C250.748 141.659 251.204 88.1536 241.613 65.5287C232.022 42.9038 203.972 2.36059 137.102 2.36059C70.2315 2.36059 40.9738 38.8726 29.458 65.389C17.9421 91.9053 23.6648 146.344 23.6648 338.844C23.6648 526.206 35.1159 531.859 35.1159 549.691Z" fill="#FFB03A" stroke="black" stroke-width="4"/>
<path d="M269.918 200.465C268.855 196.566 252.309 188.796 244.169 185.398V196.723L245.843 202.335L270.509 209.769C270.755 208.292 270.981 204.364 269.918 200.465Z" fill="#FFB03A" stroke="black" stroke-width="2"/>
<path d="M2.08435 200.465C3.14779 196.566 19.6933 188.796 27.8331 185.398V196.723L26.1592 202.335L1.49352 209.769C1.24736 208.292 1.02091 204.364 2.08435 200.465Z" fill="#FFB03A" stroke="black" stroke-width="2"/>
</svg>
