<svg width="270" height="590" viewBox="0 0 270 590" fill="none" xmlns="http://www.w3.org/2000/svg">
<g clip-path="url(#clip0_501_13)">
<path d="M34.1159 547.691C34.1159 565.523 99.3681 589.826 139.694 589.828C180.021 589.83 238.57 563.439 238.57 547.691C238.57 531.943 249.748 521.168 249.748 330.413C249.748 139.659 250.204 86.1536 240.613 63.5287C231.022 40.9038 202.972 0.360588 136.102 0.360591C69.2315 0.360594 39.9738 36.8726 28.458 63.389C16.9421 89.9053 22.6648 144.344 22.6648 336.844C22.6648 524.206 34.1159 529.859 34.1159 547.691Z" fill="#2B73FF" stroke="black" stroke-width="4"/>
<path d="M268.918 198.465C267.855 194.566 251.309 186.796 243.169 183.398V194.723L244.843 200.335L269.509 207.769C269.755 206.292 269.981 202.364 268.918 198.465Z" fill="#2B73FF" stroke="black" stroke-width="2"/>
<path d="M1.08435 198.465C2.14779 194.566 18.6933 186.796 26.8331 183.398V194.723L25.1592 200.335L0.493521 207.769C0.247364 206.292 0.0209103 202.364 1.08435 198.465Z" fill="#2B73FF" stroke="black" stroke-width="2"/>
</g>
<defs>
<clipPath id="clip0_501_13">
<rect width="589.468" height="269.427" fill="white" transform="translate(0.287842 589.828) rotate(-90)"/>
</clipPath>
</defs>
</svg>
