<svg width="220" height="574" viewBox="0 0 220 574" fill="none" xmlns="http://www.w3.org/2000/svg">
<path d="M8.87454 431.364C10.0878 444.464 14.9405 452.632 17.8719 455.766C19.1239 451.929 19.7298 450.878 21.0821 444.664C23.8436 431.972 27.001 327.296 25.5573 285.864C24.4024 252.718 12.9806 193.479 7.41411 168.003C6.6878 182.2 5.29585 214.536 5.53846 230.305C5.84171 250.017 7.358 414.988 8.87454 431.364Z" fill="url(#paint0_linear_501_13)" stroke="black"/>
<path d="M23.6804 413.891C19.8271 411.706 11.2465 406.481 7.75067 403.058" stroke="black" stroke-width="2"/>
<path d="M6.20184 322.589C7.51194 324.846 19.9782 329.294 26.0475 331.236L26.0475 313.304C23.4996 313.522 11.7554 302.835 6.20184 297.464C6.20215 304.843 6.20225 319.781 6.20184 322.589Z" fill="#232323" stroke="black"/>
<path d="M210.838 430.788C209.624 443.888 204.772 452.056 201.84 455.189C200.588 451.352 199.982 450.302 198.63 444.087C195.869 431.396 192.711 326.72 194.155 285.288C195.31 252.142 206.732 192.903 212.298 167.427C213.024 181.624 214.416 213.96 214.174 229.729C213.871 249.441 212.354 414.412 210.838 430.788Z" fill="url(#paint1_linear_501_13)" stroke="black"/>
<path d="M196.032 413.314C199.885 411.13 208.466 405.905 211.962 402.482" stroke="black" stroke-width="2"/>
<path d="M213.51 322.012C212.2 324.27 199.734 328.718 193.665 330.66L193.665 312.727C196.213 312.946 207.957 302.259 213.51 296.888C213.51 304.267 213.51 319.205 213.51 322.012Z" fill="#232323" stroke="black"/>
<path d="M18.1175 168L27.7311 240.205C27.7311 240.205 63.4836 230.027 110.457 230.027C157.431 230.027 193.184 240.205 193.184 240.205L203.015 163.518C204.226 154.072 201.085 144.54 192.907 139.659C179.512 131.665 154.221 121.204 113.589 121.204C72.0292 121.204 44.0183 133.502 29.0293 142.555C20.3386 147.803 16.7776 157.936 18.1175 168Z" fill="url(#paint2_radial_501_13)" stroke="black" stroke-width="2"/>
<path d="M193.901 511.446L185.331 447.076C185.331 447.076 152.755 456.35 109.953 456.35C67.1525 456.35 34.576 447.076 34.576 447.076L25.7875 515.626C24.5764 525.072 27.7291 534.616 35.9828 539.367C48.4615 546.551 71.214 555.506 107.1 555.506C143.861 555.506 168.988 544.946 182.92 536.783C191.68 531.65 195.241 521.51 193.901 511.446Z" fill="url(#paint3_radial_501_13)" stroke="black" stroke-width="2"/>
<path d="M20.5881 150.249C16.4081 148.483 7.55362 141.983 5.57549 130.114C3.59736 118.245 7.81266 72.6538 10.1676 51.3418" stroke="black"/>
<path d="M200.755 148.556C204.935 146.79 213.79 140.29 215.768 128.421C217.746 116.552 211.059 72.6519 208.704 51.3398" stroke="black"/>
<path d="M25.034 523.109L31.682 573.463" stroke="black" stroke-width="2"/>
<path d="M193.574 522.125L188.384 573.463" stroke="black" stroke-width="2"/>
<path d="M27.7427 240.488C30.8447 277.939 36.5492 371.86 34.5518 447.939" stroke="black" stroke-width="2"/>
<path d="M192.323 240.488C189.221 277.939 183.517 371.86 185.514 447.939" stroke="black" stroke-width="2"/>
<path d="M213.477 181.966C210.914 181.867 213.066 169.611 212.368 171.049L206.329 199.343C207.644 198.439 210.692 196.212 212.368 194.536C214.044 192.86 216.846 193.838 218.037 194.536V183.937C217.585 183.321 216.04 182.065 213.477 181.966Z" fill="black" stroke="black" stroke-width="2"/>
<path d="M6.5253 181.966C9.08873 181.867 6.93608 169.611 7.63444 171.049L13.6733 199.343C12.3587 198.439 9.31053 196.212 7.63444 194.536C5.95836 192.86 3.15667 193.838 1.96533 194.536V183.937C2.41722 183.321 3.96187 182.065 6.5253 181.966Z" fill="black" stroke="black" stroke-width="2"/>
<path d="M94.8829 8.02022C88.9563 10.9999 61.2195 13.729 57.8816 13.2761C54.5436 12.8231 61.0531 8.28226 61.0531 8.28226C61.0531 8.28226 74.7456 4.68176 83.5908 3.33307C92.436 1.98438 104.4 1.98438 104.4 1.98438C104.4 1.98438 100.81 5.04052 94.8829 8.02022Z" fill="black"/>
<path d="M94.8829 8.02022C88.9563 10.9999 61.2195 13.729 57.8816 13.2761C54.5436 12.8231 61.0531 8.28226 61.0531 8.28226C61.0531 8.28226 74.7456 4.68176 83.5908 3.33307C92.436 1.98438 104.4 1.98438 104.4 1.98438C104.4 1.98438 100.81 5.04052 94.8829 8.02022Z" fill="black"/>
<path d="M61.2195 8.02022L61.0531 8.28226M61.0531 8.28226C61.0531 8.28226 54.5436 12.8231 57.8816 13.2761C61.2195 13.729 88.9563 10.9999 94.8829 8.02022C100.81 5.04052 104.4 1.98438 104.4 1.98438C104.4 1.98438 92.436 1.98438 83.5908 3.33307C74.7456 4.68176 61.0531 8.28226 61.0531 8.28226Z" stroke="black" stroke-width="2"/>
<path d="M124.464 8.02022C130.391 10.9999 158.127 13.729 161.465 13.2761C164.803 12.8231 158.294 8.28226 158.294 8.28226C158.294 8.28226 144.601 4.68176 135.756 3.33307C126.911 1.98438 114.947 1.98438 114.947 1.98438C114.947 1.98438 118.537 5.04052 124.464 8.02022Z" fill="black"/>
<path d="M124.464 8.02022C130.391 10.9999 158.127 13.729 161.465 13.2761C164.803 12.8231 158.294 8.28226 158.294 8.28226C158.294 8.28226 144.601 4.68176 135.756 3.33307C126.911 1.98438 114.947 1.98438 114.947 1.98438C114.947 1.98438 118.537 5.04052 124.464 8.02022Z" fill="black"/>
<path d="M158.127 8.02022L158.294 8.28226M158.294 8.28226C158.294 8.28226 164.803 12.8231 161.465 13.2761C158.127 13.729 130.391 10.9999 124.464 8.02022C118.537 5.04052 114.947 1.98438 114.947 1.98438C114.947 1.98438 126.911 1.98438 135.756 3.33307C144.601 4.68176 158.294 8.28226 158.294 8.28226Z" stroke="black" stroke-width="2"/>
<defs>
<linearGradient id="paint0_linear_501_13" x1="5.51043" y1="311.884" x2="25.9193" y2="311.884" gradientUnits="userSpaceOnUse">
<stop stop-color="#A8BEC8"/>
<stop offset="1" stop-color="#393C3E"/>
</linearGradient>
<linearGradient id="paint1_linear_501_13" x1="214.202" y1="311.308" x2="193.793" y2="311.308" gradientUnits="userSpaceOnUse">
<stop stop-color="#A8BEC8"/>
<stop offset="1" stop-color="#393C3E"/>
</linearGradient>
<radialGradient id="paint2_radial_501_13" cx="0" cy="0" r="1" gradientUnits="userSpaceOnUse" gradientTransform="translate(120.896 259.256) rotate(-92.0309) scale(257.736 162.331)">
<stop/>
<stop offset="1" stop-color="#BEDFD9"/>
</radialGradient>
<radialGradient id="paint3_radial_501_13" cx="0" cy="0" r="1" gradientUnits="userSpaceOnUse" gradientTransform="translate(100.442 429.718) rotate(87.9691) scale(234.841 147.911)">
<stop/>
<stop offset="1" stop-color="#BEDFD9"/>
</radialGradient>
</defs>
</svg>
