<svg width="270" height="590" viewBox="0 0 270 590" fill="none" xmlns="http://www.w3.org/2000/svg">
<g clip-path="url(#clip0_501_13)">
<path d="M33.8745 430.696C35.0878 443.796 39.9405 451.964 42.8719 455.098C44.1239 451.261 44.7298 450.211 46.0821 443.996C48.8436 431.304 52.001 326.628 50.5573 285.196C49.4024 252.05 37.9806 192.811 32.4141 167.335C31.6878 181.532 30.2959 213.868 30.5385 229.637C30.8417 249.349 32.358 414.32 33.8745 430.696Z" fill="url(#paint0_linear_501_13)" stroke="black"/>
<path d="M48.6804 413.223C44.8271 411.038 36.2465 405.813 32.7507 402.39" stroke="black" stroke-width="2"/>
<path d="M31.2018 321.921C32.5119 324.178 44.9782 328.626 51.0475 330.568L51.0475 312.636C48.4996 312.854 36.7554 302.167 31.2018 296.797C31.2022 304.175 31.2022 319.113 31.2018 321.921Z" fill="#232323" stroke="black"/>
<path d="M235.838 430.12C234.625 443.22 229.772 451.388 226.84 454.521C225.588 450.684 224.982 449.634 223.63 443.419C220.869 430.728 217.711 326.052 219.155 284.62C220.31 251.474 231.732 192.235 237.298 166.759C238.024 180.956 239.416 213.292 239.174 229.061C238.871 248.773 237.354 413.744 235.838 430.12Z" fill="url(#paint1_linear_501_13)" stroke="black"/>
<path d="M221.032 412.646C224.885 410.462 233.466 405.237 236.962 401.814" stroke="black" stroke-width="2"/>
<path d="M238.51 321.344C237.2 323.602 224.734 328.05 218.665 329.992L218.665 312.059C221.213 312.278 232.957 301.591 238.51 296.22C238.51 303.599 238.51 318.537 238.51 321.344Z" fill="#232323" stroke="black"/>
<path d="M43.1175 167.332L52.7311 239.537C52.7311 239.537 88.4836 229.359 135.457 229.359C182.431 229.359 218.184 239.537 218.184 239.537L228.015 162.85C229.226 153.404 226.085 143.872 217.907 138.991C204.512 130.997 179.221 120.536 138.589 120.536C97.0292 120.536 69.0183 132.834 54.0293 141.887C45.3386 147.135 41.7776 157.268 43.1175 167.332Z" fill="url(#paint2_radial_501_13)" stroke="black" stroke-width="2"/>
<path d="M218.901 510.778L210.331 446.408C210.331 446.408 177.755 455.682 134.953 455.682C92.1525 455.682 59.576 446.408 59.576 446.408L50.7875 514.958C49.5764 524.405 52.7291 533.948 60.9828 538.699C73.4615 545.883 96.214 554.838 132.1 554.838C168.861 554.838 193.988 544.278 207.92 536.115C216.68 530.982 220.241 520.842 218.901 510.778Z" fill="url(#paint3_radial_501_13)" stroke="black" stroke-width="2"/>
<path d="M45.5882 149.581C41.4082 147.815 32.5537 141.315 30.5755 129.446C28.5974 117.577 32.8127 71.9859 35.1676 50.6738" stroke="black"/>
<path d="M225.755 147.888C229.935 146.122 238.79 139.622 240.768 127.753C242.746 115.884 236.059 71.9839 233.704 50.6719" stroke="black"/>
<path d="M50.0341 522.441L56.6821 572.795" stroke="black" stroke-width="2"/>
<path d="M218.574 521.457L213.384 572.795" stroke="black" stroke-width="2"/>
<path d="M52.7428 239.82C55.8447 277.271 61.5492 371.192 59.5519 447.271" stroke="black" stroke-width="2"/>
<path d="M217.323 239.82C214.221 277.271 208.517 371.192 210.514 447.271" stroke="black" stroke-width="2"/>
<path d="M238.477 181.298C235.914 181.199 238.066 168.943 237.368 170.381L231.329 198.675C232.644 197.771 235.692 195.544 237.368 193.868C239.044 192.192 241.846 193.17 243.037 193.868V183.269C242.585 182.653 241.04 181.397 238.477 181.298Z" fill="black" stroke="black" stroke-width="2"/>
<path d="M31.5253 181.298C34.0887 181.199 31.9361 168.943 32.6344 170.381L38.6733 198.675C37.3587 197.771 34.3105 195.544 32.6344 193.868C30.9584 192.192 28.1567 193.17 26.9653 193.868V183.269C27.4172 182.653 28.9619 181.397 31.5253 181.298Z" fill="black" stroke="black" stroke-width="2"/>
<path d="M119.883 7.35225C113.956 10.3319 86.2196 13.0611 82.8816 12.6081C79.5437 12.1551 86.0532 7.61429 86.0532 7.61429C86.0532 7.61429 99.7456 4.0138 108.591 2.6651C117.436 1.31641 129.4 1.31641 129.4 1.31641C129.4 1.31641 125.81 4.37255 119.883 7.35225Z" fill="black"/>
<path d="M119.883 7.35225C113.956 10.3319 86.2196 13.0611 82.8816 12.6081C79.5437 12.1551 86.0532 7.61429 86.0532 7.61429C86.0532 7.61429 99.7456 4.0138 108.591 2.6651C117.436 1.31641 129.4 1.31641 129.4 1.31641C129.4 1.31641 125.81 4.37255 119.883 7.35225Z" fill="black"/>
<path d="M86.2196 7.35225L86.0532 7.61429M86.0532 7.61429C86.0532 7.61429 79.5437 12.1551 82.8816 12.6081C86.2196 13.0611 113.956 10.3319 119.883 7.35225C125.81 4.37255 129.4 1.31641 129.4 1.31641C129.4 1.31641 117.436 1.31641 108.591 2.6651C99.7456 4.0138 86.0532 7.61429 86.0532 7.61429Z" stroke="black" stroke-width="2"/>
<path d="M149.464 7.35225C155.391 10.3319 183.127 13.0611 186.465 12.6081C189.803 12.1551 183.294 7.61429 183.294 7.61429C183.294 7.61429 169.601 4.0138 160.756 2.6651C151.911 1.31641 139.947 1.31641 139.947 1.31641C139.947 1.31641 143.537 4.37255 149.464 7.35225Z" fill="black"/>
<path d="M149.464 7.35225C155.391 10.3319 183.127 13.0611 186.465 12.6081C189.803 12.1551 183.294 7.61429 183.294 7.61429C183.294 7.61429 169.601 4.0138 160.756 2.6651C151.911 1.31641 139.947 1.31641 139.947 1.31641C139.947 1.31641 143.537 4.37255 149.464 7.35225Z" fill="black"/>
<path d="M183.127 7.35225L183.294 7.61429M183.294 7.61429C183.294 7.61429 189.803 12.1551 186.465 12.6081C183.127 13.0611 155.391 10.3319 149.464 7.35225C143.537 4.37255 139.947 1.31641 139.947 1.31641C139.947 1.31641 151.911 1.31641 160.756 2.6651C169.601 4.0138 183.294 7.61429 183.294 7.61429Z" stroke="black" stroke-width="2"/>
</g>
<defs>
<linearGradient id="paint0_linear_501_13" x1="30.5104" y1="311.216" x2="50.9193" y2="311.216" gradientUnits="userSpaceOnUse">
<stop stop-color="#A8BEC8"/>
<stop offset="1" stop-color="#393C3E"/>
</linearGradient>
<linearGradient id="paint1_linear_501_13" x1="239.202" y1="310.64" x2="218.793" y2="310.64" gradientUnits="userSpaceOnUse">
<stop stop-color="#A8BEC8"/>
<stop offset="1" stop-color="#393C3E"/>
</linearGradient>
<radialGradient id="paint2_radial_501_13" cx="0" cy="0" r="1" gradientUnits="userSpaceOnUse" gradientTransform="translate(145.896 258.588) rotate(-92.0309) scale(257.736 162.331)">
<stop/>
<stop offset="1" stop-color="#BEDFD9"/>
</radialGradient>
<radialGradient id="paint3_radial_501_13" cx="0" cy="0" r="1" gradientUnits="userSpaceOnUse" gradientTransform="translate(125.442 429.05) rotate(87.9691) scale(234.841 147.911)">
<stop/>
<stop offset="1" stop-color="#BEDFD9"/>
</radialGradient>
<clipPath id="clip0_501_13">
<rect width="589.468" height="269.427" fill="white" transform="translate(0.287842 589.828) rotate(-90)"/>
</clipPath>
</defs>
</svg>
